<svg width="189" height="48" viewBox="0 0 189 48" fill="none" xmlns="http://www.w3.org/2000/svg">
<path d="M188.867 41.4911C188.9 41.7293 188.845 42.0197 188.867 42.2672L188.014 47.4631H186.15L186.931 42.2284C186.883 41.0268 184.813 41.6611 184.326 42.2672L183.508 47.4617H181.567L182.735 40.1758L184.274 40.1825L184.519 40.9465C185.706 39.959 188.572 39.3221 188.866 41.4898L188.867 41.4911Z" fill="white"/>
<path d="M157.185 47.6182C157.01 47.6102 156.472 47.4656 156.289 47.3894C155.522 47.0682 155.405 46.0767 155.487 45.3407L156.266 40.3028L156.369 40.1743H158.194C158 41.9968 157.521 43.7992 157.434 45.6257C157.641 46.5316 159.6 45.9014 160.001 45.3528L160.834 40.1743H162.698L161.612 47.4656L160.108 47.4549L159.786 46.6909C159.416 46.9317 159.024 47.2248 158.604 47.3706C158.314 47.471 157.703 47.6142 157.418 47.6209C157.342 47.6222 157.261 47.6249 157.185 47.6209V47.6182Z" fill="white"/>
<path d="M12.4024 33.1921C14.2811 33.4571 14.4082 36.508 12.4613 36.896L1.60795 36.9147C0.873336 36.809 0.348801 36.2925 0.115971 35.6128C-0.116859 28.2746 0.0851943 20.8843 0.0142749 13.5274C0.0664609 12.9828 0.253795 12.4596 0.679312 12.0969C6.18694 8.4814 11.4417 4.23292 16.968 0.677581C17.7709 0.161074 18.2901 -0.240357 19.299 0.167764C24.6648 4.05897 30.3812 7.60226 35.6854 11.5671C36.2648 12.0006 36.8108 12.2803 36.9927 13.0537L37.0623 35.0949C36.9968 35.9674 36.23 36.5601 35.4713 36.8411C29.6225 36.9495 23.7 36.9923 17.8579 36.8197C17.1928 36.5789 16.7914 35.9794 16.6563 35.305L16.6228 30.6457L11.5929 27.9521C11.3293 27.7661 10.7338 27.0195 10.7338 26.7157V20.8602H12.753V15.7031C12.753 15.113 13.4756 14.535 14.0456 14.5055C14.5126 14.4828 15.3944 14.9725 15.3944 15.4703V20.8602H21.6848V15.4703C21.6848 15.4476 21.8749 15.1398 21.9177 15.0823C22.4596 14.3624 23.5716 14.3222 24.0787 15.0943C24.1229 15.1612 24.3236 15.5907 24.3236 15.6242V20.8588H26.3428V26.792C26.3428 27.0074 25.8611 27.6725 25.6711 27.8277L20.4417 30.631V33.1908H33.2541V14.4212L18.539 4.26236L3.82385 14.5376V33.1908H12.4038L12.4024 33.1921Z" fill="white"/>
<path d="M146.662 14.5L152.448 26.4439V14.5H156.485V32.1054H150.895L145.031 20.0839L145.071 32.1054H140.955V14.5H146.662Z" fill="white"/>
<path d="M112.068 34.5879H107.06L105.078 32.4563C101.041 32.4282 97.8429 30.7155 96.7149 26.6931C95.4049 22.0218 96.6855 15.896 101.956 14.5217C106.923 13.2265 111.798 15.1319 112.962 20.3933C113.839 24.3581 113.001 29.6222 108.964 31.5237L112.068 34.5866V34.5879ZM104.678 17.6208C99.8688 17.7385 99.838 27.1909 103.428 28.6748C109.62 31.2346 110.666 17.4749 104.678 17.6208Z" fill="white"/>
<path d="M62.9145 14.5V21.2481H68.2723V14.5H72.7763V32.1054H68.2723V23.4185C68.0381 23.6205 67.998 23.8707 67.7236 24.0728C67.5711 24.1852 66.8325 24.505 66.6799 24.505H62.9132V32.1054H58.4091V14.5H62.9132H62.9145Z" fill="white"/>
<path d="M119.912 14.5V25.7842C119.912 25.9006 120.062 26.5108 120.106 26.6767C121.055 30.3204 125.737 29.3529 125.737 25.629V14.5H130.241L130.244 26.0211C130.249 34.5702 115.503 34.621 115.406 26.0987L115.408 14.5H119.912Z" fill="white"/>
<path d="M188.168 32.106H183.314L181.606 27.1417C181.3 28.0783 180.238 28.3272 179.356 28.3861C178.812 28.4236 175.769 28.2951 175.584 28.4182L174.267 32.106H169.686L176.091 14.5769L176.321 14.4966L181.648 14.5367L188.168 32.1074V32.106ZM180.868 25.0489L178.888 18.1456L176.675 25.0489H180.868Z" fill="white"/>
<path d="M56.4675 15.0461L56.0808 18.8437C55.0451 18.2924 53.8836 17.8133 52.7021 17.6822C49.1374 17.2848 46.512 19.4512 46.3715 23.0681C46.2217 26.9245 48.9674 29.1725 52.7074 28.9303C53.9238 28.8513 55.0759 28.4138 56.24 28.1074L56.4635 31.7109C55.3542 31.9731 54.2342 32.2354 53.0928 32.3384C46.3474 32.9473 41.1141 29.321 41.7966 22.1408C42.3907 15.8865 47.8876 13.4471 53.6147 14.3677C54.5821 14.5229 55.5148 14.8401 56.4702 15.0461H56.4675Z" fill="white"/>
<path d="M171.162 14.5V17.9122H167.086L166.969 18.0286V32.1054H162.543V18.0286L162.427 17.9122H158.349V14.5H171.162Z" fill="white"/>
<path d="M88.0749 14.5V28.6156H95.1401V32.1054H83.6484V14.5H88.0749Z" fill="white"/>
<path d="M80.4651 14.5H75.961V32.1054H80.4651V14.5Z" fill="white"/>
<path d="M137.694 14.5H133.19V32.1054H137.694V14.5Z" fill="white"/>
<path d="M150.895 36.6816L150.274 40.4819C150.77 40.4029 151.235 40.1942 151.731 40.1166C154.802 39.6308 154.794 42.0635 154.368 44.3784C153.813 47.3918 152.076 48.477 149.305 46.7629L148.838 47.4627H147.323L149.071 36.6816H150.896H150.895ZM150.136 41.8186L149.538 45.4516C150.206 45.9413 151.47 46.2357 152.016 45.4409C152.416 44.8588 152.74 42.7004 152.567 42.0314C152.359 41.2272 150.733 41.5898 150.137 41.8186H150.136Z" fill="white"/>
<path d="M122.163 36.682L120.446 47.4537L118.95 47.451L118.628 46.7619C114.813 49.0032 113.859 46.0434 114.668 42.7289C115.366 39.8707 117.088 39.6325 119.677 40.4809L120.338 36.6807H122.163V36.682ZM119.439 41.8083C118.895 41.6169 117.893 41.4269 117.353 41.6102C116.563 41.8779 116.214 44.6022 116.357 45.3114C116.568 46.3525 118.249 45.852 118.863 45.4466L119.439 41.8083Z" fill="white"/>
<path d="M176.97 40.1183C180.618 39.7436 181.358 41.5394 180.585 44.8137C180.156 46.6282 179.407 47.4096 177.49 47.5394C174.19 47.7642 173.533 46.1572 174.136 43.1812C174.484 41.4644 175.074 40.3123 176.97 40.117V40.1183ZM177.514 41.5915C176.184 41.7026 176.054 42.9738 175.909 44.0992C175.715 45.6045 175.856 46.1839 177.568 45.9886C178.63 45.8668 178.87 44.0309 178.927 43.1571C179.003 41.9649 178.817 41.4832 177.514 41.5915Z" fill="white"/>
<path d="M130.201 42.9645C131.483 43.1157 131.789 43.9132 131.705 45.0867C131.508 47.8365 130.043 47.6545 127.712 47.5434C127.418 47.5287 125.603 47.3521 125.511 47.221L125.662 45.9926L129.331 45.9725C129.701 45.8601 129.925 44.9462 129.666 44.7401C129.464 44.5809 128.1 44.7026 127.715 44.6732C125.832 44.5327 125.627 43.4355 126.007 41.7976C126.212 40.9145 126.651 40.1999 127.64 40.0942C128.345 40.0179 129.63 40.0487 130.358 40.0942C130.653 40.113 131.676 40.2307 131.895 40.3418C132.189 40.4903 131.809 41.336 131.871 41.6437C131.741 41.7789 128.591 41.4537 128.115 41.7307C127.77 41.9314 127.756 42.9631 127.95 42.9631C128.665 43.0247 129.505 42.8802 130.202 42.9631L130.201 42.9645Z" fill="white"/>
<path d="M169.833 40.4916L169.678 41.6383C168.871 41.732 166.957 41.3025 166.308 41.724C165.74 42.092 165.508 43.4528 165.426 44.1004C165.334 44.827 165.141 45.9002 166.149 45.9939C167.086 46.0795 168.125 45.9323 169.065 45.9122C169.125 45.9738 168.979 46.9627 168.869 47.0751C168.484 47.4725 165.825 47.6023 165.228 47.5327C162.912 47.2637 163.376 43.9452 163.841 42.3636C164.601 39.7757 166.085 39.852 168.471 40.1852C168.931 40.2494 169.389 40.3591 169.831 40.4929L169.833 40.4916Z" fill="white"/>
<path d="M136.451 38.0791L136.141 40.1732H137.772L137.531 41.5608L135.956 41.5649C135.771 42.6006 135.445 43.8289 135.375 44.8753C135.295 46.0676 135.686 45.9338 136.652 46.2964L136.518 47.3361L136.402 47.4525C135.614 47.4324 134.5 47.6506 133.886 47.039C132.794 45.9538 133.992 42.9659 133.966 41.5689H132.802L132.995 40.5599L134.235 40.0929L134.938 38.0791H136.453H136.451Z" fill="white"/>
<path d="M137.85 47.4631L139.022 40.1811L140.644 40.1731L140.761 41.0268C141.671 40.4434 142.716 39.7676 143.834 40.2226L143.519 42.0009C142.458 41.8912 141.29 41.8765 140.53 42.7356L139.789 47.4631H137.847H137.85Z" fill="white"/>
<path d="M124.96 40.1714L123.794 47.4627H121.93L123.018 40.1714H124.96Z" fill="white"/>
<path d="M173.258 40.1714L172.094 47.4627H170.153L171.317 40.1714H173.258Z" fill="white"/>
<path d="M146.935 40.1714L145.77 47.4627H143.906L144.994 40.1714H146.935Z" fill="white"/>
<path d="M123.367 39.3969C123.326 39.3903 123.246 39.3207 123.185 39.306C123.109 39.1788 123.302 37.7083 123.523 37.5356H125.309C125.389 37.5356 125.429 37.7163 125.429 37.8033C125.429 37.9638 125.213 39.1681 125.151 39.2404C125.115 39.2832 124.879 39.3983 124.843 39.3983C124.424 39.3983 123.742 39.4612 123.367 39.3983V39.3969Z" fill="white"/>
<path d="M173.646 37.5356L173.395 39.3019C173.066 39.4077 171.427 39.5642 171.4 39.1333C171.38 38.8095 171.584 37.7912 171.823 37.5356H173.648H173.646Z" fill="white"/>
<path d="M147.323 37.5356C147.417 37.5972 147.232 39.0169 147.154 39.1895C147.113 39.2779 146.883 39.3983 146.819 39.3983H145.343C145.322 39.3983 145.162 39.3193 145.146 39.2671C145.129 39.0062 145.249 37.537 145.498 37.537H147.323V37.5356Z" fill="white"/>
<path d="M180.635 37.3027L178.655 39.2416H177.53C177.554 39.0597 177.732 38.887 177.843 38.7412C178.218 38.2461 178.63 37.7671 179.043 37.3027H180.635Z" fill="white"/>
</svg>
