<svg width="239" height="49" viewBox="0 0 239 49" fill="none" xmlns="http://www.w3.org/2000/svg">
<path d="M23.7543 10.4462C27.3473 10.1311 29.8533 14.0287 28.7432 17.3213L19.1786 45.5228C16.7165 50.6056 10.2023 48.8591 9.81006 43.453C12.6728 33.3103 16.4369 23.3847 19.792 13.3777C20.4764 11.7482 21.9912 10.5985 23.7543 10.4441V10.4462Z" fill="white"/>
<path d="M40.8639 0.00735038C44.4841 -0.188783 46.8043 3.5774 45.8153 6.85325L36.0461 35.4763C33.0353 40.6237 26.1038 37.6546 27.0198 31.8749L36.8369 2.88467C37.5297 1.38863 39.2093 0.101243 40.8639 0.00943576V0.00735038Z" fill="white"/>
<path d="M14.1272 0.0410313C17.4218 -0.0069589 19.5396 3.38156 18.9012 6.43833L8.88165 35.6456C5.86035 40.7742 -1.37365 37.586 0.228809 30.9571C2.43844 21.814 7.28754 12.1429 9.77468 2.94548C10.5258 1.19488 12.1951 0.0702427 14.1272 0.0410313Z" fill="white"/>
<path d="M146.899 44.6131L154.601 14.492C154.772 14.2542 157.797 13.4926 158.338 13.382C162.348 12.5599 169.3 11.7649 170.177 17.2713C170.569 19.7417 168.564 27.4139 167.562 29.9094C165.655 34.6625 159.69 37.7443 154.832 35.6432L152.535 44.6152H146.901L146.899 44.6131ZM156.099 31.2385C157.993 32.2296 161.073 31.2865 162.006 29.3606C162.527 28.2861 164.56 20.7892 164.624 19.6499C164.76 17.2859 160.873 16.6891 159.452 18.0433L156.099 31.2385Z" fill="white"/>
<path d="M80.339 4.96826L78.0459 13.9403C81.3238 12.5757 86.2564 13.1245 87.3372 17.0618C88.007 19.5009 87.0701 21.986 86.4963 24.3751C85.7702 27.3964 84.6497 32.9528 83.5334 35.6006C83.4312 35.8426 83.3999 36.1055 83.1558 36.2662H77.8351L81.593 21.1326C82.2857 18.3596 77.0652 18.1739 76.3579 19.8702L72.2015 36.0575H66.5679L74.4967 4.96826H80.339Z" fill="white"/>
<path d="M202.165 27.2674C200.759 27.5053 191.49 26.9586 191.027 27.5011C190.89 27.6638 190.769 28.2168 190.737 28.4609C190.249 32.2897 195.167 31.2902 197.051 29.6022L199.88 32.225C196.988 37.4747 185.475 38.8184 184.686 31.549C184.463 29.4937 186.631 21.2958 187.547 19.2238C189.706 14.3434 196.492 11.1844 201.422 13.7696C206.338 16.3444 203.098 23.2696 202.163 27.2674H202.165ZM192.49 22.9128H198.019C198.664 20.7866 199.254 18.1994 196.043 18.3141C193.865 18.3913 192.331 20.4194 192.256 22.483C192.248 22.7396 192.292 22.7542 192.49 22.9128Z" fill="white"/>
<path d="M122.236 12.9585C124.15 12.7582 126.362 13.044 127.918 14.2479C131.964 17.3777 128.817 23.2471 127.926 27.2011L116.843 27.3847C115.207 30.7065 118.535 31.8666 121.168 30.6668C121.711 30.4206 122.514 29.49 122.969 29.609C123.461 30.141 125.759 31.9584 125.598 32.5718C125.36 33.4774 122.092 35.4951 121.139 35.8519C117.412 37.2477 111.218 36.8158 110.621 31.9647C110.291 29.2856 111.948 23.3848 112.839 20.6661C114.239 16.3887 117.694 13.4321 122.241 12.9585H122.236ZM118.105 22.9133H123.634C124.613 21.0771 125.039 18.4064 122.168 18.3146C119.545 18.229 118.118 20.5367 118.105 22.9133Z" fill="white"/>
<path d="M138.97 13.3154L140.951 20.6204C142.338 17.91 144.468 15.6669 146.378 13.3154H152.95L143.175 24.5243L147.108 36.0586H140.535C139.532 33.9387 138.889 31.5267 138.655 29.171C138.13 29.1814 136.903 31.4182 136.46 31.9836C135.371 33.3774 134.08 34.6335 133.024 36.0586H126.66L136.222 24.6432L132.502 13.3154H138.97Z" fill="white"/>
<path d="M230.519 13.1582C233.277 12.7848 236.328 13.1666 238.275 15.3241L234.429 19.5639C233.062 17.6839 229.152 17.6151 228.9 20.3255C228.741 22.0385 231.85 22.4662 233.006 23.0818C238.352 25.9341 235.005 32.9573 230.917 35.2567C227.078 37.4162 221.359 37.3682 219.377 32.8196L222.74 28.9554C222.999 28.6257 222.951 28.8176 223.162 28.9554C224.332 29.7378 224.712 30.8917 226.548 31.2046C228.384 31.5176 230.788 30.1196 229.709 28.2543C229.088 27.1776 225.745 27.1964 224.222 25.3957C220.426 20.9118 225.482 13.8364 230.519 13.1562V13.1582Z" fill="white"/>
<path d="M206.987 28.7553C207.801 30.7605 211.797 32.4339 213.215 30.2847C215.085 27.4492 211.492 27.5034 209.912 26.7731C204.94 24.4696 206.426 18.2851 209.908 15.2951C212.621 12.9645 217.236 12.2446 220.412 13.9785C220.81 14.1976 222.194 15.0823 221.922 15.6081L218.154 19.5662C216.963 18.1787 214.184 17.4755 213.073 19.2929C211.49 21.8886 214.922 22.1953 216.458 22.9402C220.815 25.0496 219.949 29.7527 217.386 32.9993C213.987 37.3059 205.712 38.537 203.073 32.8241L206.985 28.7574L206.987 28.7553Z" fill="white"/>
<path d="M62.8142 20.8261C62.3677 17.3082 57.9276 18.1512 56.8614 21.0306C56.4295 22.2012 54.7769 28.346 54.8687 29.2808C55.0607 31.2233 57.7941 31.1169 59.1294 30.395C59.7783 30.0444 60.6547 28.7737 60.9405 28.6423C61.4893 28.3919 64.8444 29.9046 65.5163 30.3178C63.0208 34.5159 58.2385 37.4307 53.2559 36.1204C49.8402 35.2211 48.703 32.6234 49.0432 29.2787C49.3207 26.5516 51.5115 19.0568 53.2183 16.9702C57.2536 12.0377 67.8365 10.696 68.2204 19.0213L62.8122 20.8261H62.8142Z" fill="white"/>
<path d="M111.428 4.96826L105.39 28.4709C105.302 30.1965 106.667 30.6826 108.094 30.9497L106.79 36.0096C101.845 37.13 99.1093 34.4238 99.5287 29.4787L105.797 4.97035H111.43L111.428 4.96826Z" fill="white"/>
<path d="M169.851 36.2663C171.416 31.2002 172.182 25.3642 173.918 20.4066C175.791 15.0589 181.348 11.735 186.944 13.3333L185.59 18.2992C183.474 17.6774 180.716 18.5413 179.695 20.5506L175.485 36.2663H169.851Z" fill="white"/>
<path d="M99.3264 13.3154L93.4841 36.2672H87.8505L93.6927 13.3154H99.3264Z" fill="white"/>
<path d="M98.6566 3.96725C103.266 3.60002 101.897 10.7672 97.4986 11.389C92.7726 12.0588 94.0475 4.33448 98.6566 3.96725Z" fill="white"/>
</svg>
