<svg width="226" height="35" viewBox="0 0 226 35" fill="none" xmlns="http://www.w3.org/2000/svg">
<path d="M77.806 0.00183543V10.1816L79.8631 9.02938C88.0809 6.29574 95.1983 13.3952 93.0545 21.6764C91.2627 28.6014 82.9868 31.3086 77.1485 27.4227L76.9815 28.7356H72.3662V5.17417C72.3662 5.04838 72.584 4.01032 72.6421 3.80736C73.2827 1.57901 75.4741 -0.062647 77.806 0.00183543ZM81.7225 13.3444C80.2997 13.5294 77.9424 14.7799 77.7986 16.3307C77.7003 17.3899 77.64 20.8001 77.8145 21.7493C78.0322 22.9301 80.5809 24.1542 81.6982 24.2842C90.3219 25.2864 89.7574 12.3011 81.7225 13.3444Z" fill="white"/>
<path d="M116.874 21.0176H101.873C101.988 23.3284 104.669 24.5514 106.728 24.637C108.89 24.7258 110.4 23.8442 111.981 22.5218L115.878 24.4742C115.182 26.6296 112.64 28.2924 110.479 28.8506C104.677 30.3506 97.9002 28.044 96.3801 21.8104C94.8791 15.6571 97.9827 9.68556 104.474 8.58618C112.56 7.21619 118.239 13.0704 116.874 21.0186V21.0176ZM111.599 17.2406C111.349 11.5175 102.276 11.657 101.873 17.2406H111.599Z" fill="white"/>
<path d="M159.074 9.52421V28.7347H154.87C154.457 28.5391 154.651 27.5064 154.209 27.5825C153.85 27.6438 152.778 28.4007 152.262 28.6004C146.581 30.795 140.02 27.6427 138.552 21.6733C135.944 11.0697 147.406 4.93856 155.886 10.483C156.91 9.93013 157.837 9.34239 159.074 9.52421ZM148.825 13.3403C141.744 13.6796 141.617 25.1025 149.924 24.3002C150.976 24.1987 153.254 23.3361 153.713 22.3287C153.862 22.0021 153.891 16.7896 153.806 16.167C153.564 14.4037 150.38 13.2653 148.825 13.3403Z" fill="white"/>
<path d="M68.7405 9.52394V28.7344H64.5364C64.1231 28.5389 64.3176 27.5061 63.8757 27.5822C63.5163 27.6435 62.4445 28.4004 61.9286 28.6002C56.2668 30.7883 49.6738 27.6372 48.215 21.6762C45.6219 11.08 57.0755 4.90763 65.5523 10.4827C66.5766 9.92986 67.5037 9.34212 68.7405 9.52394ZM58.4899 13.3443C51.3366 13.7639 51.3482 25.0959 59.5903 24.2999C60.6421 24.1985 62.9201 23.3359 63.38 22.3285C63.529 22.0018 63.5576 16.7893 63.473 16.1667C63.2278 14.3813 60.0512 13.2523 58.4899 13.3443Z" fill="white"/>
<path d="M35.441 9.52415V28.7346H31.1556L30.7444 27.4217C24.4113 31.9196 15.2781 27.7854 14.665 19.9566C14.0064 11.5495 21.683 6.53048 29.4304 9.02626C30.0784 9.23557 32.2021 10.4977 32.3659 10.4819C32.848 10.4375 34.4399 9.04106 35.4421 9.52415H35.441ZM25.1915 13.3445C18.3532 13.7493 17.9673 24.9503 26.2908 24.2991C27.7443 24.1849 30.1904 23.2177 30.3395 21.6003C30.4463 20.446 30.4938 17.2631 30.3226 16.1838C30.0477 14.4544 26.776 13.2504 25.1925 13.3445H25.1915Z" fill="white"/>
<path d="M13.6819 0.00203307V5.09192H7.99477C7.49688 5.09192 6.15015 6.12575 5.84465 6.56233C5.71463 6.74838 5.27488 7.67333 5.27488 7.80124V11.4958H11.3743V16.5856H5.27488V29.9673C5.27488 30.2443 4.71779 31.5329 4.53914 31.8616C3.69136 33.4124 1.79811 34.5245 0 34.4832V7.14373C0 3.53694 4.89644 0.000976562 8.32458 0.000976562H13.6819V0.00203307Z" fill="white"/>
<path d="M225.177 28.4054H221.055V18.4719C221.055 18.2531 220.443 17.3546 220.237 17.1527C218.921 15.8704 216.517 16.0121 215.027 16.9085C214.955 17.0237 215.121 17.1241 215.121 17.158V28.4054H210.999V18.4719C210.999 18.2943 210.581 17.5956 210.426 17.4C209.221 15.8715 206.769 15.7859 205.23 16.8292V28.4043H201.108V14.2837C204.922 12.4402 209.547 11.0194 213.223 13.9497C216.306 11.9687 220.315 11.3302 223.201 14.0343C223.851 14.6431 225.176 16.8059 225.176 17.6506V28.4054H225.177Z" fill="white"/>
<path d="M189.036 12.3582C193.093 11.8455 197.09 13.391 198.553 17.4079C201.349 25.0887 193.217 31.6025 186.224 27.5538C179.843 23.8583 181.675 13.2884 189.036 12.3582ZM190.528 16.1288C185.036 16.4259 185.43 25.3308 191.138 24.7948C196.304 24.3086 195.825 15.8424 190.528 16.1288Z" fill="white"/>
<path d="M44.5077 0.00195312V28.7347H39.2328V4.35293C39.2328 4.08972 39.8406 2.82015 40.0235 2.5136C40.9791 0.920563 42.7032 0.203857 44.5077 0.00195312Z" fill="white"/>
<path d="M125.446 0.00195312V28.7347H120.171V4.51678C120.171 4.24934 120.688 3.05694 120.862 2.74298C121.825 1.01359 123.523 0.193286 125.446 0.00195312Z" fill="white"/>
<path d="M134.513 0.00195312V28.7347H129.238V4.51678C129.238 4.24934 129.755 3.05694 129.929 2.74298C130.892 1.01359 132.59 0.193286 134.513 0.00195312Z" fill="white"/>
<path d="M171.107 19.7036L168.797 18.3114L166.986 17.8971C168.918 11.9668 176.445 10.6528 181.16 14.2036L179.02 17.3368L178.802 17.3844C175.991 15.286 171.757 15.8854 171.106 19.7026L171.107 19.7036Z" fill="white"/>
<path d="M165.797 20.8912C171.023 20.3478 171.462 28.3679 166.402 28.5762C161.467 28.7792 160.921 21.3975 165.797 20.8912Z" fill="white"/>
<path d="M173.087 24.3022C175.142 25.3307 177.438 24.614 179.182 23.3159L181.296 26.52C178.99 28.6098 175.099 29.41 172.262 28.1532C172.79 26.9291 173.226 25.6595 173.086 24.3022H173.087Z" fill="white"/>
</svg>
