<svg width="213" height="36" viewBox="0 0 213 36" fill="none" xmlns="http://www.w3.org/2000/svg">
<path d="M7.07261 16.5751C10.2848 13.4787 13.247 9.91526 15.9536 6.36287C16.5199 5.61911 18.2474 3.56435 18.514 2.87759C18.6436 2.54294 18.7567 2.23128 18.5719 1.881C18.2428 1.39099 15.9591 1.7762 16.9106 0.0643547L25.7098 0.0128709C26.4085 1.63462 25.2823 1.29537 24.2159 1.66771C23.7231 1.83963 23.0648 2.07407 22.6162 2.31402C20.1983 3.60664 13.8961 11.0755 12.0868 13.5559C11.0507 14.9763 11.4248 15.0581 12.289 16.4565C14.832 20.5743 19.4609 27.4924 22.6281 30.9989C23.963 32.4763 24.9109 33.0251 26.9463 33.2467C27.2746 33.4968 27.2378 34.5687 26.6816 34.5503L17.0835 34.4713L16.9309 33.1731L18.9856 32.5388L18.9222 32.1214L8.71734 17.442L7.07721 19.4315C7.32452 22.9793 6.73153 26.9951 7.07537 30.484C7.30613 32.8293 8.37442 33.004 10.4972 33.1934L10.5092 34.5264L0.410033 34.3849L0.344759 33.1731C3.78959 32.9902 3.28302 31.3822 3.44667 28.7602C3.89531 21.5644 3.90083 12.9703 3.44667 5.77632C3.26096 2.83438 3.82728 1.41489 0.0137901 1.34962L0 0L10.1957 0.0661931L10.3547 1.36984C9.30757 1.43603 7.87153 1.5482 7.37876 2.6266C7.32911 2.73601 7.07445 3.64801 7.07445 3.70409V16.5769L7.07261 16.5751Z" fill="white"/>
<path d="M111.09 9.14485C110.996 10.9376 111.732 12.7138 112.343 14.3714C114.154 19.2798 116.612 24.066 118.486 28.9634L118.951 29.3624L125.908 12.9887L126.988 9.14393H132.258L132.501 9.42157L132.443 10.021C131.006 10.2876 129.74 10.3014 129.448 12.0362C129.007 14.6555 129.536 18.7632 129.587 21.4909C129.646 24.7169 129.467 28.1507 129.755 31.3436C129.924 33.2173 130.579 33.8452 132.518 33.6779V34.7168L124.511 34.7232C124.22 34.6524 124.245 33.9261 124.421 33.7018C125.779 33.6163 126.762 33.5896 126.972 32.0221C127.4 28.8494 126.874 24.2591 126.808 20.9862C126.764 18.8266 126.926 16.6486 126.729 14.4973L117.917 34.8924L109.623 14.3245C109.234 20.1514 108.979 25.9957 109.037 31.8447C109.258 33.0159 109.321 33.3966 110.532 33.6328C111.091 33.7422 112.267 33.4526 111.942 34.4373C111.791 34.8942 109.627 34.7131 109.107 34.7131C107.931 34.7131 106.207 34.8473 105.123 34.7223C104.494 34.6496 104.24 34.1045 104.698 33.7615C105.534 33.1345 106.773 34.1247 107.25 31.9945C107.617 30.359 107.685 27.5825 107.808 25.8137C108.025 22.7063 108.052 19.5841 108.148 16.4776C108.223 14.0754 109.436 9.88033 105.563 10.1791V9.14209H111.093L111.09 9.14485Z" fill="white"/>
<path d="M193.941 9.14502C197.394 15.0363 201.846 20.2334 205.882 25.7146L208.281 28.4984C208.218 23.7931 208.667 18.7385 208.377 14.0617C208.224 11.6052 208.161 10.0947 205.248 10.1067L205.087 9.14502H212.689L212.525 10.103C210.322 10.3641 210.086 10.9607 209.928 13.0348L209.901 35.0359L209.342 35.2143L193.596 14.1574C193.641 19.1145 193.245 24.3466 193.502 29.2835C193.546 30.1165 193.72 32.55 194.197 33.0823C194.728 33.6762 196.058 33.7075 196.795 33.6808V34.7197L189.265 34.5588L189.356 33.7608C192.512 33.7442 191.826 31.3429 191.958 29.1052C192.231 24.4643 192.486 18.3266 192.135 13.7188C191.964 11.4609 191.276 10.228 188.835 10.1076L188.673 9.14686H193.943L193.941 9.14502Z" fill="white"/>
<path d="M166.727 9.14502C167.578 11.2623 169.067 13.2113 170.387 15.0749C173.69 19.7369 177.335 24.2068 180.894 28.6703C180.928 28.2925 181.047 27.9376 181.076 27.5542C181.357 23.8005 181.388 15.7791 180.701 12.1908C180.597 11.6475 180.498 10.9589 180.028 10.6169C179.149 9.97704 176.835 10.5912 177.872 9.14502H185.129L185.387 9.40887C185.656 10.3751 183.491 10.0616 182.897 11.0591C182.626 11.5142 182.481 13.0955 182.444 13.717C182.034 20.5386 182.759 27.7739 182.46 34.6397C182.471 34.933 182.371 35.2529 182.016 35.2428L166.38 14.1564C165.998 14.252 166.052 14.6262 166.028 14.925C165.693 18.9674 165.676 27.1993 166.231 31.1544C166.549 33.4234 166.962 33.6036 169.296 33.7029C169.47 33.8077 169.548 34.7896 169.066 34.7298L161.79 34.5588L161.881 33.7608C163.875 33.5006 164.224 33.5071 164.458 31.5001C165.011 26.7673 165.036 18.1602 164.66 13.3731C164.55 11.9831 164.232 10.878 162.8 10.3953C162.394 10.2584 161.506 10.2004 161.363 10.1048C161.022 9.87683 161.233 9.14686 161.456 9.14686H166.726L166.727 9.14502Z" fill="white"/>
<path d="M55.6183 33.6881C55.6505 33.9768 55.701 34.6129 55.3535 34.6975L46.6417 34.6414C45.384 32.9241 48.9245 34.1487 48.8969 32.7393C48.2984 31.3621 47.3119 26.1402 46.479 25.2897C46.2657 25.0719 46.1544 25.07 45.8722 25.0323C44.6403 24.8705 40.3432 24.8678 39.1168 25.0323C38.9007 25.0617 38.7849 25.0617 38.5937 25.2006C38.271 25.4322 36.7807 29.8755 36.5747 30.611C35.8935 33.0362 35.5193 33.6136 38.521 33.6816L38.441 34.5523L30.5952 34.521L30.5759 33.6835C32.1251 33.6072 33.2136 33.5088 34.064 32.0746C37.3112 25.1592 39.3181 17.2003 42.5883 10.3612C43.0378 9.41981 43.6207 7.96263 44.4058 9.56875C47.14 16.4501 48.8445 24.4476 51.8517 31.1516C52.7665 33.1898 53.2978 33.5327 55.6211 33.689L55.6183 33.6881ZM39.4698 23.486H45.5173C45.8557 23.486 45.7407 22.8286 45.7021 22.6153C45.4373 21.1508 43.7816 16.6579 43.1436 15.1474C42.9992 14.8054 42.8677 14.3191 42.4963 14.1563L39.2372 23.0897C39.1747 23.2304 39.3825 23.4611 39.4707 23.486H39.4698Z" fill="white"/>
<path d="M150.572 34.8905C149.346 33.0702 153.066 34.6395 152.872 32.7815C152.658 30.7497 151.005 27.9604 150.637 25.8413C150.308 25.2795 149.154 25.2474 148.507 25.2069C147.398 25.138 143.504 25.0699 142.661 25.4248C142.505 25.491 142.475 25.5461 142.381 25.6629C142.007 26.1253 140.819 29.9535 140.591 30.7846C140.404 31.464 139.851 32.9111 140.204 33.5115C140.639 34.2506 143.452 33.3046 142.279 34.8914H134.59L134.614 34.052C136.073 33.7045 137.123 33.9803 137.969 32.4818C141.04 25.6114 143.234 18.2685 146.259 11.3982C146.693 10.4108 147.427 7.88163 148.374 9.96213C151.446 16.7111 152.947 25.1517 156.037 32.0193C156.531 32.9847 156.941 33.5528 158.043 33.8148C158.645 33.9583 159.463 33.6025 159.651 34.4602L159.385 34.8923H150.573L150.572 34.8905ZM143.488 23.8315H149.362C149.909 23.8315 149.599 22.8874 149.533 22.6235C148.853 19.8893 147.522 17.2223 146.769 14.4992C146.453 14.3953 146.36 14.9827 146.262 15.1988C145.078 17.8346 144.27 20.7158 143.218 23.3967C143.216 23.5511 143.361 23.792 143.488 23.8306V23.8315Z" fill="white"/>
<path d="M64.4377 9.49072L64.2695 10.1003C62.2763 10.0626 61.7587 11.3083 61.5215 13.0541C61.3091 14.6143 61.5096 16.0485 61.5077 17.5185C61.5031 20.7142 61.2595 24.4284 61.4939 27.5542C61.8414 32.1915 64.6758 34.1966 69.1972 33.862C76.7865 33.3002 75.1427 23.8097 74.9708 18.5703C74.8991 16.3951 75.0361 14.2135 74.7566 12.0456C74.5083 10.1196 73.6405 10.1646 71.867 10.1821V9.49164H79.643L79.5666 10.0194L79.358 10.1563C77.5661 10.1876 76.9327 10.3402 76.7277 12.1918C76.1476 17.4248 77.5183 26.4749 75.7008 30.8621C73.2709 36.7276 61.5307 36.7901 59.2774 30.9807C57.9213 27.4844 59.0016 18.6631 58.7432 14.4084C58.6163 12.3196 58.5023 9.88605 55.793 10.1012L55.8849 9.49072H64.4377Z" fill="white"/>
<path d="M100.031 9.14502C99.9414 9.91084 100.51 14.0222 100.101 14.3412C99.2509 15.0032 99.1719 13.1084 98.9558 12.554C98.5688 11.5638 97.6237 10.5277 96.4901 10.5277H88.5423L88.283 10.787V20.8089C88.4347 21.0553 88.6278 21.047 88.8788 21.0764C90.403 21.2557 93.3431 21.1638 94.9419 21.0746C95.3832 21.0498 97.2035 20.8595 97.3966 20.6765C98.0355 20.0284 97.7763 16.9807 98.9678 18.072L98.9963 25.7339L98.1486 25.7155C97.916 24.8706 97.8066 22.951 96.8009 22.6577C96.4947 22.5685 95.3483 22.4693 94.9428 22.4426C93.4783 22.347 90.4371 22.2633 89.0525 22.4426C88.7583 22.4803 88.5285 22.5069 88.3685 22.7956C88.3703 25.436 88.0725 28.3982 88.2766 31.0101C88.3161 31.5148 88.5009 32.721 88.7951 33.0832C89.4184 33.8491 91.0089 33.4942 91.4015 33.759C91.7389 33.987 91.5311 34.7188 91.3068 34.7188H82.754L82.7843 33.7093C84.3702 33.5291 85.3549 33.5172 85.5249 31.7014C86.1124 25.4213 85.0846 18.2172 85.5029 11.8397C85.2813 10.1958 84.3215 10.3733 82.9995 10.0239L82.9415 9.4245L83.1852 9.14686H100.031V9.14502Z" fill="white"/>
</svg>
