<svg width="193" height="42" viewBox="0 0 193 42" fill="none" xmlns="http://www.w3.org/2000/svg">
<path d="M29.3064 41.0479C29.4031 40.4829 29.5768 39.8968 29.6145 39.3228C30.1961 30.5059 28.6976 22.5364 23.8171 15.1393C23.3806 14.4777 22.7311 12.9959 21.8429 13.9611C21.1828 14.6801 19.7901 17.0939 19.2931 18.041C15.9851 24.3445 14.6301 31.2868 15.1135 38.4195C15.1724 39.2851 15.5999 40.1174 15.4201 41.0479H1.60941C1.05051 41.0479 -0.165461 39.708 0.0188232 39.0222L0.124559 1.33615C1.17135 -1.07767 4.11386 0.386028 5.94763 1.04915C12.526 3.42671 18.1104 7.7876 22.438 13.1998C26.9077 7.42507 33.4981 2.50076 40.593 0.45098C42.7591 -0.174377 44.4645 -0.564094 44.8557 2.28325V38.5691C45.0038 39.3425 44.0476 41.0479 43.2651 41.0479H29.3034H29.3064Z" fill="white"/>
<path d="M65.8325 7.33154L72.8504 19.9716L79.7173 7.33154H85.6038L86.9617 34.4243H80.7731L79.9423 16.8116L74.2839 27.275C73.6117 27.3218 71.5227 27.5605 71.1043 27.1315L65.2283 16.9642L64.4715 34.4243H58.585L59.943 7.33154H65.8295H65.8325Z" fill="white"/>
<path d="M192.014 26.5985H178.43C179.007 31.8022 186.042 31.0983 189.211 28.7087L191.551 32.3777C185.567 37.0724 174.527 35.9048 172.914 27.3583C171.618 20.499 175.898 14.3466 183.193 14.7001C189.652 15.0127 192.381 20.7663 192.016 26.5985H192.014ZM186.43 22.8342C186.244 17.9764 178.75 18.141 178.43 22.8342H186.43Z" fill="white"/>
<path d="M108.698 26.5986H95.1139C95.7952 31.754 102.706 31.1316 105.908 28.7344L108.248 32.2464C108.255 32.9745 104.884 34.2962 104.17 34.5016C95.345 37.0348 87.4903 31.4202 89.7878 21.9658C91.9947 12.8815 105.319 11.8543 108.133 21.2166C108.277 21.6924 108.697 23.1213 108.697 23.5141V26.6001L108.698 26.5986ZM103.265 22.8343C102.738 18.0037 95.6592 18.0898 95.1139 22.8343H103.265Z" fill="white"/>
<path d="M134.811 7.33154V29.2311L135.036 29.4577H146.584V34.4243H128.773V7.33154H134.811Z" fill="white"/>
<path d="M161.224 12.8248C161.935 6.82953 169.843 4.87642 174.34 8.02435C174.54 8.16483 174.951 8.35214 174.965 8.60288C174.935 8.80227 172.941 11.843 172.769 11.9955C172.346 12.3716 172.166 11.9109 171.791 11.7705C168.621 10.5741 166.651 11.9004 166.961 15.3096H171.489V19.9756H166.961V34.4253H161.225V19.9756H158.056V15.3096H161.225C161.292 14.5166 161.133 13.5997 161.225 12.8263L161.224 12.8248Z" fill="white"/>
<path d="M119.113 10.191V15.3086H123.868L124.095 15.5337V19.7481L123.868 19.9731H119.113V28.4774C119.113 28.5816 119.517 29.4607 119.634 29.6133C120.696 31 122.835 30.2507 124.047 29.4728L124.244 29.5196L126.491 32.8609C126.581 33.1449 126.424 33.0316 126.317 33.1071C123.251 35.243 118.728 36.1765 115.568 33.666C114.348 32.6963 113.225 30.3187 113.225 28.778V19.9731H110.207V15.3071H113.225V10.1895H119.112L119.113 10.191Z" fill="white"/>
<path d="M155.035 15.3086V34.4243H149.149V15.5352L149.375 15.3086H155.035Z" fill="white"/>
<path d="M151.523 6.61547C156.257 5.80431 156.808 12.8841 152.37 13.1923C148.336 13.4717 147.467 7.31031 151.523 6.61547Z" fill="white"/>
</svg>
