<svg width="238" height="35" viewBox="0 0 238 35" fill="none" xmlns="http://www.w3.org/2000/svg">
<path d="M20.8596 3.38105L21.1039 0L25.9695 0.00461034V3.38105H35.5456L46.4003 14.1343V34.1655H0V14.1343L11.2804 3.38105H20.858H20.8596ZM42.569 15.6112C42.7549 14.8751 42.2616 14.769 41.9327 14.3433C39.8103 11.597 36.2679 9.26715 33.8428 6.75595H17.0282C16.8422 7.4921 17.3356 7.59814 17.6645 8.02385C19.7868 10.7702 23.3293 13.1 25.7544 15.6112H42.569ZM20.4338 15.6112L12.1334 7.18473C10.0832 9.63292 6.79438 11.8859 4.8933 14.3433C4.56442 14.769 4.07263 14.8751 4.25705 15.6112H20.4323H20.4338ZM21.2853 18.9846H3.83288V29.3168L4.47067 29.95H21.2853V18.9861V18.9846ZM42.569 18.9846H25.1166V29.5273H42.569V18.9846Z" fill="white"/>
<path d="M156.013 6.33301L164.522 16.4577L172.615 6.33301H180.064V32.4778H171.976V17.7179C171.261 17.5658 171.114 17.9438 170.706 18.3588C169.718 19.3654 164.613 26.1398 164.101 26.1398L156.652 17.2968V32.4778H148.989V6.33301H156.013Z" fill="white"/>
<path d="M107.272 32.4778V6.33301H122.809C123.696 6.33301 127.589 8.0681 128.571 8.63827C136.421 13.1996 136.693 26.5901 128.42 30.8671C127.687 31.2467 124.659 32.4778 124.086 32.4778H107.272ZM115.36 26.9958H121.958C123.161 26.9958 125.887 24.0805 126.227 22.791C128.297 14.9255 123.179 10.1106 115.36 11.3923V26.9943V26.9958Z" fill="white"/>
<path d="M86.7363 6.02104C94.439 4.98214 102.305 8.1511 104.513 16.0243C108.692 30.924 86.6272 38.8096 77.4845 27.1972C71.0452 19.0196 76.6331 7.38268 86.7363 6.02104ZM88.8648 12.3282C79.61 13.6069 80.635 27.9103 91.6327 26.0492C100.322 24.5799 97.7232 11.1049 88.8648 12.3282Z" fill="white"/>
<path d="M181.341 32.0565L192.619 6.75086L201.585 6.30518L213.268 32.055H205.179L203.521 27.6765L191.403 27.4736L189.43 32.055H181.341V32.0565ZM201.348 22.7786L197.304 12.6539L193.261 22.7786H201.349H201.348Z" fill="white"/>
<path d="M237.105 8.0205V14.3461C232.672 12.4528 227.619 10.2996 223.086 13.3195C217.651 16.9434 219.028 25.0456 225.588 26.3888C229.532 27.1957 233.893 26.4088 237.105 24.0452V30.7919C227.431 34.219 212.86 33.9332 211.972 20.9008C210.962 6.08716 225.767 3.37002 237.105 8.0205Z" fill="white"/>
<path d="M60.0215 23.6225C60.1368 26.501 62.4497 27.709 65.1331 26.7884C68.0623 23.0431 60.9144 21.6477 58.354 20.0033C55.1313 17.9331 53.4408 15.674 54.0909 11.6275C55.4909 2.91051 74.1589 3.23632 73.2153 13.4978L67.6904 14.3431C67.6304 11.4676 64.9532 10.232 62.4359 11.3601C59.9524 15.0393 66.6714 16.4393 69.1842 18.1299C73.4935 21.0268 75.6988 25.124 71.7323 29.5301C66.2427 35.6268 53.0258 32.8636 53.2102 23.6225H60.0215Z" fill="white"/>
<path d="M144.732 6.33301H137.07V32.4778H144.732V6.33301Z" fill="white"/>
</svg>
