<svg width="223" height="53" viewBox="0 0 223 53" fill="none" xmlns="http://www.w3.org/2000/svg">
<path d="M6.8812 11.0149L11.3587 34.6469C12.0584 31.0899 12.8222 27.5432 13.62 24.0059C14.5942 19.686 15.6852 15.3867 16.6745 11.0696L16.8234 11.0083L23.4274 11.1064C25.0494 18.9042 26.9807 26.653 28.0925 34.5508L28.2349 34.4583C29.4957 26.586 31.3007 18.8174 32.8991 11.014H39.3088L31.3723 41.4037C28.0652 42.1694 25.0324 41.8478 23.8235 38.2945C22.838 35.3985 22.1638 31.1644 21.5216 28.0722C21.1 26.041 20.6408 24.0003 20.2947 21.9549C20.0976 20.7931 20.0391 19.5775 19.7487 18.4506C18.3219 26.1334 16.1935 33.6596 14.3989 41.2584L14.166 41.4961C11.5614 41.9733 8.57392 42.0591 7.21032 39.3536C6.56624 38.0428 6.27107 36.599 5.90895 35.192C3.8428 27.1594 2.11613 19.0334 0 11.014H6.8812V11.0149Z" fill="white"/>
<path d="M106.614 41.4244H100.487V28.5748C100.329 25.9174 99.5687 22.9969 96.2936 23.2562C94.3632 23.409 92.663 25.3271 92.663 27.2556V41.4244H86.4419V27.1613C86.4419 26.3738 85.7695 24.832 85.2188 24.2407C82.8565 21.7059 78.7119 24.3567 78.7119 27.3499V41.4244H72.4908V18.6411H78.43V21.654C79.6021 20.1094 80.8017 18.8985 82.7462 18.3855C86.3419 17.4369 89.9216 18.6458 91.487 22.1246L92.9921 20.4281C99.2132 15.4065 106.125 18.6533 106.62 26.5926L106.616 41.4244H106.614Z" fill="white"/>
<path d="M129.332 41.5182C128.17 41.6974 127.208 41.9313 126.03 41.6634C124.56 41.3296 123.707 40.3225 123.158 38.9787C121.979 40.2885 120.535 41.274 118.794 41.6795C112.85 43.0648 107.632 38.8617 109.468 32.6482C111.023 27.3843 117.95 26.3941 122.64 26.362C122.71 21.0858 116.091 22.2938 112.896 23.7385C112.549 23.896 112.268 24.1931 111.894 24.1959L110.764 20.0589C115.535 17.6344 124.337 16.5669 127.581 21.8497C128.739 23.7348 128.974 25.9367 129.053 28.0991C129.217 32.5671 128.747 37.0785 129.332 41.5182ZM122.827 30.4095C120.172 30.3736 115.396 30.8668 115.377 34.4154C115.355 38.4977 121.075 38.2054 122.497 35.0227C122.554 34.8963 122.827 34.1014 122.827 34.0344V30.4095Z" fill="white"/>
<path d="M40.0018 29.7831C42.7894 26.9296 47.6874 26.459 51.4699 26.3619C51.5689 21.0942 44.8999 22.2871 41.7247 23.7365C41.3937 23.8874 41.1184 24.2165 40.7242 24.1958L39.634 20.2473C39.6048 20.1229 39.7001 20.0757 39.784 20.0116C40.4356 19.5174 42.1444 18.9837 42.9667 18.7611C49.0708 17.109 56.5942 17.9332 57.6664 25.3972C58.2794 29.6624 57.657 34.4152 57.8767 38.7437C57.8984 39.169 58.2379 41.2502 58.12 41.4266C55.6305 42.3375 52.9212 41.6095 51.9895 38.9766C51.0153 40.0649 49.8347 40.9768 48.4343 41.4492C45.1215 42.5676 41.0203 41.9207 39.0456 38.8154C37.2906 36.0561 37.7244 32.1133 40.0037 29.7813L40.0018 29.7831ZM51.6575 30.4093C48.9926 30.3923 44.2577 30.8346 44.2303 34.4105C44.2049 37.6517 47.9288 38.2184 50.0997 36.5267C50.6513 36.0967 51.6575 34.8368 51.6575 34.1286V30.4102V30.4093Z" fill="white"/>
<path d="M155.16 11.0151V18.1236L155.302 18.2651H160.628V24.008H155.302L155.156 24.3324C155.378 27.4369 154.829 30.976 155.266 34.0229C155.721 37.1933 157.719 36.917 160.345 36.5285L160.427 41.3171C159.761 41.5208 159.074 41.6698 158.384 41.7717C152.626 42.6213 149.445 40.5288 149.124 34.6029L149.128 11.0151H155.161H155.16Z" fill="white"/>
<path d="M68.1538 11.0151H62.027V41.4247H68.1538V11.0151Z" fill="white"/>
<path d="M139.512 41.4245H133.102V18.6412H138.759V22.8782C138.977 22.9215 138.909 22.8555 138.971 22.7575C139.164 22.4491 139.289 21.954 139.496 21.5909C140.3 20.1764 141.681 18.8788 143.262 18.3856C144.276 18.0697 145.615 17.8905 146.582 18.3121V24.055C146.582 24.1145 146.431 24.1908 146.347 24.1993C146.025 24.2323 145.225 24.0041 144.839 24.0013C142.428 23.9843 140.428 25.2659 139.77 27.6083C139.707 27.8328 139.512 28.4948 139.512 28.6683V41.4254V41.4245Z" fill="white"/>
<path d="M193.506 0.026074C194.971 -0.135182 197.006 0.444774 197.555 1.95455C197.412 6.69982 196.753 11.4658 196.427 16.2186C196.074 18.1009 192.131 18.1933 191.663 16.2186C191.526 11.9034 190.654 7.44386 190.506 3.15784C190.487 2.60806 190.452 2.06394 190.713 1.56885C191.174 0.695617 192.56 0.130749 193.505 0.026074H193.506Z" fill="white"/>
<path d="M184.548 29.1144C186.266 29.022 187.888 31.9944 186.553 33.2826L175.073 41.3058C172.278 42.4157 169.14 37.0933 171.516 35.1167C175.363 33.375 179.132 31.4239 182.999 29.734C183.375 29.5699 184.201 29.1333 184.548 29.1144Z" fill="white"/>
<path d="M203.401 29.1142C203.764 29.0944 204.362 29.3934 204.713 29.5452C208.716 31.2709 212.6 33.3248 216.574 35.1165C218.931 37.0808 215.964 42.1816 213.16 41.3508C212.961 41.2924 212.688 41.0887 212.5 40.9746C208.782 38.7189 205.25 35.6078 201.536 33.2833C200.238 32.0017 201.778 29.2029 203.401 29.1133V29.1142Z" fill="white"/>
<path d="M196.038 35.5262C196.227 35.7299 196.392 36.1203 196.44 36.3957L197.63 50.0892C197.202 52.9154 192.266 53.1352 190.845 51.1152C190.421 50.5117 190.477 49.9035 190.51 49.1924C190.704 44.9734 191.489 40.6374 191.649 36.3957C191.977 34.5954 194.963 34.3663 196.038 35.5262Z" fill="white"/>
<path d="M173.991 11.0403C174.426 10.9818 174.847 11.0374 175.234 11.2562L186.598 19.2059C187.897 20.7222 186.075 23.805 184.141 23.259L171.327 17.2283C169.606 15.2791 171.621 11.3562 173.99 11.0403H173.991Z" fill="white"/>
<path d="M201.478 19.2384L212.686 11.3689C215.037 10.0307 217.467 13.2332 217.45 15.3927C217.435 17.3759 216.078 17.6239 214.581 18.3453C211.022 20.0607 207.378 21.6157 203.807 23.3065C201.975 23.6762 200.24 20.6925 201.478 19.2384Z" fill="white"/>
<path d="M220.461 38.4348C222.825 38.035 223.778 41.3346 221.589 42.1965C218.806 43.2923 217.647 38.911 220.461 38.4348ZM220.366 38.8101C218.888 39.1147 218.86 41.7231 220.539 41.9834C223.002 42.3653 222.986 38.2707 220.366 38.8101Z" fill="white"/>
<path d="M220.109 39.3526C220.661 39.3498 221.772 39.1876 221.619 40.0552C221.58 40.273 221.321 40.3645 221.345 40.5125C221.365 40.6314 221.759 41.1038 221.713 41.3754C220.977 41.6366 221.422 40.34 220.486 40.5757V41.4235H220.109V39.3526ZM221.232 39.7374L220.486 39.6346V40.2947C220.834 40.439 221.468 40.0901 221.232 39.7374Z" fill="white"/>
</svg>
