<svg width="65" height="65" viewBox="0 0 65 65" fill="none" xmlns="http://www.w3.org/2000/svg">
<path fill-rule="evenodd" clip-rule="evenodd" d="M51.325 13.7473C46.3376 8.75401 39.7047 6.00293 32.6385 6C18.0778 6 6.22744 17.85 6.22158 32.4146C6.21963 37.0705 7.4359 41.6154 9.74772 45.6214L6 59.3101L20.004 55.6366C23.8627 57.7415 28.2068 58.8507 32.6277 58.852H32.6388C47.1979 58.852 59.0495 47.001 59.055 32.4358C59.058 25.377 56.3127 18.7402 51.325 13.7473ZM32.6385 54.3907H32.6294C28.6897 54.3891 24.8258 53.3303 21.4542 51.3302L20.6528 50.8542L12.3426 53.0342L14.5607 44.9319L14.0385 44.1013C11.8406 40.6054 10.6799 36.5648 10.6819 32.4162C10.6864 20.3105 20.5363 10.4616 32.6473 10.4616C38.5119 10.4636 44.0248 12.7503 48.1701 16.9005C52.3155 21.0507 54.597 26.5672 54.5951 32.4341C54.5899 44.5408 44.7406 54.3907 32.6385 54.3907ZM44.6821 37.9464C44.0222 37.6158 40.7769 36.0195 40.1716 35.7989C39.5671 35.5786 39.1265 35.4689 38.6869 36.1295C38.2467 36.79 36.982 38.277 36.5967 38.7172C36.2115 39.1578 35.8269 39.2131 35.1667 38.8825C34.5065 38.5522 32.3798 37.855 29.8584 35.6063C27.8964 33.856 26.5718 31.6945 26.1865 31.034C25.8019 30.3729 26.1833 30.0501 26.4761 29.687C27.1906 28.7996 27.9062 27.8694 28.1261 27.4291C28.3464 26.9886 28.2361 26.603 28.0708 26.2728C27.9062 25.9425 26.5861 22.6936 26.0362 21.3716C25.5 20.085 24.9563 20.2588 24.5508 20.2386C24.1662 20.2194 23.726 20.2155 23.2858 20.2155C22.8459 20.2155 22.1307 20.3805 21.5255 21.0416C20.9206 21.7025 19.2156 23.2991 19.2156 26.548C19.2156 29.7969 21.5808 32.9355 21.9107 33.3761C22.2407 33.8167 26.5653 40.4837 33.1864 43.3425C34.7612 44.0232 35.9905 44.4289 36.9494 44.7331C38.5308 45.2355 39.9693 45.1646 41.1068 44.9947C42.3751 44.805 45.0117 43.3978 45.5622 41.8561C46.1121 40.3142 46.1121 38.9928 45.9468 38.7172C45.7822 38.4419 45.3419 38.277 44.6821 37.9464Z" fill="white"/>
</svg>
